REM DIRINDEX 1\2,1\3,1\4,1\6,1\5\7,1\5\8
REM DIRNAME folder01,folder02,folder03,folder04,folder05,folder06,folder07,folder08
TITLE ""
FILE "DB4500_5th_5C_20.mp3" MP3
  TRACK 01 AUDIO
    TITLE "0:"
    INDEX 01 00:00:00
  TRACK 02 AUDIO
    TITLE "2:cjc114_3892"
    INDEX 01 00:00:03
  TRACK 03 AUDIO
    TITLE "0:"
    INDEX 01 00:01:15
  TRACK 04 AUDIO
    TITLE "3:cjc114_3893"
    INDEX 01 00:01:38
  TRACK 05 AUDIO
    TITLE "0:"
    INDEX 01 00:02:59
  TRACK 06 AUDIO
    TITLE "4:cjc114_3894"
    INDEX 01 00:03:08
  TRACK 07 AUDIO
    TITLE "0:"
    INDEX 01 00:06:73
  TRACK 08 AUDIO
    TITLE "2:cjc114_3895"
    INDEX 01 00:07:43
  TRACK 09 AUDIO
    TITLE "0:"
    INDEX 01 00:08:56
  TRACK 10 AUDIO
    TITLE "3:cjc114_3896"
    INDEX 01 00:09:02
  TRACK 11 AUDIO
    TITLE "0:"
    INDEX 01 00:10:02
  TRACK 12 AUDIO
    TITLE "4:cjc114_3897"
    INDEX 01 00:10:23
  TRACK 13 AUDIO
    TITLE "0:"
    INDEX 01 00:13:14
  TRACK 14 AUDIO
    TITLE "4:cjc114_3898"
    INDEX 01 00:13:55
  TRACK 15 AUDIO
    TITLE "0:"
    INDEX 01 00:16:67
  TRACK 16 AUDIO
    TITLE "2:cjc114_3899"
    INDEX 01 00:17:41
  TRACK 17 AUDIO
    TITLE "0:"
    INDEX 01 00:18:46
  TRACK 18 AUDIO
    TITLE "3:cjc114_3900"
    INDEX 01 00:18:68
  TRACK 19 AUDIO
    TITLE "0:"
    INDEX 01 00:19:62
  TRACK 20 AUDIO
    TITLE "4:cjc114_3901"
    INDEX 01 00:20:08
  TRACK 21 AUDIO
    TITLE "0:"
    INDEX 01 00:22:15
  TRACK 22 AUDIO
    TITLE "2:cjc114_3902"
    INDEX 01 00:22:60
  TRACK 23 AUDIO
    TITLE "0:"
    INDEX 01 00:24:06
  TRACK 24 AUDIO
    TITLE "3:cjc114_3903"
    INDEX 01 00:24:31
  TRACK 25 AUDIO
    TITLE "0:"
    INDEX 01 00:25:45
  TRACK 26 AUDIO
    TITLE "4:cjc114_3904"
    INDEX 01 00:25:66
  TRACK 27 AUDIO
    TITLE "0:"
    INDEX 01 00:28:47
  TRACK 28 AUDIO
    TITLE "2:cjc114_3905"
    INDEX 01 00:29:19
  TRACK 29 AUDIO
    TITLE "0:"
    INDEX 01 00:30:20
  TRACK 30 AUDIO
    TITLE "3:cjc114_3906"
    INDEX 01 00:30:34
  TRACK 31 AUDIO
    TITLE "0:"
    INDEX 01 00:31:35
  TRACK 32 AUDIO
    TITLE "4:cjc114_3907"
    INDEX 01 00:31:49
  TRACK 33 AUDIO
    TITLE "0:"
    INDEX 01 00:34:14
  TRACK 34 AUDIO
    TITLE "2:cjc114_3908"
    INDEX 01 00:34:51
  TRACK 35 AUDIO
    TITLE "0:"
    INDEX 01 00:36:05
  TRACK 36 AUDIO
    TITLE "3:cjc114_3909"
    INDEX 01 00:36:21
  TRACK 37 AUDIO
    TITLE "0:"
    INDEX 01 00:37:40
  TRACK 38 AUDIO
    TITLE "4:cjc114_3910"
    INDEX 01 00:37:57
  TRACK 39 AUDIO
    TITLE "0:"
    INDEX 01 00:40:60
  TRACK 40 AUDIO
    TITLE "2:cjc114_3911"
    INDEX 01 00:41:20
  TRACK 41 AUDIO
    TITLE "0:"
    INDEX 01 00:42:14
  TRACK 42 AUDIO
    TITLE "3:cjc114_3912"
    INDEX 01 00:42:25
  TRACK 43 AUDIO
    TITLE "0:"
    INDEX 01 00:43:46
  TRACK 44 AUDIO
    TITLE "4:cjc114_3913"
    INDEX 01 00:43:60
  TRACK 45 AUDIO
    TITLE "0:"
    INDEX 01 00:47:50
  TRACK 46 AUDIO
    TITLE "2:cjc114_3914"
    INDEX 01 00:48:12
  TRACK 47 AUDIO
    TITLE "0:"
    INDEX 01 00:49:37
  TRACK 48 AUDIO
    TITLE "3:cjc114_3915"
    INDEX 01 00:49:51
  TRACK 49 AUDIO
    TITLE "0:"
    INDEX 01 00:50:74
  TRACK 50 AUDIO
    TITLE "4:cjc114_3916"
    INDEX 01 00:51:15
  TRACK 51 AUDIO
    TITLE "0:"
    INDEX 01 00:54:17
  TRACK 52 AUDIO
    TITLE "2:cjc114_3917"
    INDEX 01 00:54:54
  TRACK 53 AUDIO
    TITLE "0:"
    INDEX 01 00:55:46
  TRACK 54 AUDIO
    TITLE "3:cjc114_3918"
    INDEX 01 00:56:00
  TRACK 55 AUDIO
    TITLE "0:"
    INDEX 01 00:57:01
  TRACK 56 AUDIO
    TITLE "4:cjc114_3919"
    INDEX 01 00:57:13
  TRACK 57 AUDIO
    TITLE "0:"
    INDEX 01 01:00:72
  TRACK 58 AUDIO
    TITLE "2:cjc114_3920"
    INDEX 01 01:01:44
  TRACK 59 AUDIO
    TITLE "0:"
    INDEX 01 01:02:42
  TRACK 60 AUDIO
    TITLE "3:cjc114_3921"
    INDEX 01 01:02:54
  TRACK 61 AUDIO
    TITLE "0:"
    INDEX 01 01:04:05
  TRACK 62 AUDIO
    TITLE "4:cjc114_3922"
    INDEX 01 01:04:19
  TRACK 63 AUDIO
    TITLE "0:"
    INDEX 01 01:09:26
  TRACK 64 AUDIO
    TITLE "2:cjc114_3923"
    INDEX 01 01:09:63
  TRACK 65 AUDIO
    TITLE "0:"
    INDEX 01 01:10:63
  TRACK 66 AUDIO
    TITLE "3:cjc114_3924"
    INDEX 01 01:11:02
  TRACK 67 AUDIO
    TITLE "0:"
    INDEX 01 01:12:17
  TRACK 68 AUDIO
    TITLE "4:cjc114_3925"
    INDEX 01 01:12:26
  TRACK 69 AUDIO
    TITLE "0:"
    INDEX 01 01:15:46
